<?xml version="1.0" standalone="no"?>
<!DOCTYPE svg PUBLIC "-//W3C//DTD SVG 20010904//EN"
 "http://www.w3.org/TR/2001/REC-SVG-20010904/DTD/svg10.dtd">
<svg version="1.0" xmlns="http://www.w3.org/2000/svg"
 width="640.000000pt" height="640.000000pt" viewBox="0 0 640.000000 640.000000"
 preserveAspectRatio="xMidYMid meet">
<metadata>
Created by potrace 1.14, written by Peter Selinger 2001-2017
</metadata>
<g transform="translate(0.000000,640.000000) scale(0.100000,-0.100000)"
fill="#000000" stroke="none">
<path d="M0 3200 l0 -3200 3200 0 3200 0 0 3200 0 3200 -3200 0 -3200 0 0
-3200z m1637 2102 c43 -37 116 -98 163 -136 47 -38 90 -75 96 -82 6 -8 13 -11
16 -9 3 3 4 -7 2 -22 -3 -28 -36 -63 -58 -63 -12 1 -340 230 -370 260 -40 39
-10 120 44 120 23 0 49 -17 107 -68z m3270 46 c22 -21 30 -62 15 -84 -4 -6
-36 -32 -72 -58 -36 -27 -67 -51 -70 -55 -3 -4 -54 -42 -114 -84 -113 -79
-135 -86 -163 -49 -22 27 -14 47 35 89 170 148 315 263 329 263 9 0 27 -10 40
-22z m-2786 -166 c15 -9 78 -54 140 -99 378 -272 511 -363 542 -371 4 -1 16
-11 27 -22 12 -12 26 -18 32 -14 7 4 8 3 4 -4 -4 -7 -2 -12 5 -12 6 0 25 -12
43 -26 41 -34 205 -147 254 -175 l38 -22 70 45 c38 25 86 59 108 77 21 17 43
31 47 31 14 0 527 353 544 375 6 7 31 25 55 41 25 16 80 55 122 87 43 31 80
57 83 57 3 0 23 12 45 26 32 21 48 25 76 21 44 -7 54 -20 94 -117 61 -146 47
-307 -37 -417 -52 -68 -60 -73 -253 -175 -96 -50 -215 -115 -265 -143 -49 -29
-136 -76 -192 -105 l-102 -53 40 -29 c49 -35 280 -178 345 -213 27 -14 77 -43
112 -66 35 -22 125 -73 200 -114 165 -90 170 -94 177 -131 9 -44 -23 -85 -91
-119 -52 -26 -69 -29 -149 -29 -76 0 -100 4 -153 27 -35 15 -68 25 -74 21 -7
-4 -8 -3 -4 4 8 14 -40 36 -56 26 -6 -4 -8 -3 -5 3 8 13 -50 46 -66 37 -6 -4
-9 -4 -5 1 5 5 0 14 -10 20 -23 16 -189 103 -402 212 -96 49 -194 102 -218
117 l-44 27 -113 -65 c-63 -35 -154 -84 -202 -107 -130 -62 -530 -273 -583
-308 -18 -12 -50 -16 -130 -16 -90 0 -111 3 -150 24 -71 37 -90 59 -90 105 0
23 4 46 8 52 6 10 179 114 189 114 2 0 57 32 122 70 65 39 122 70 125 70 4 0
82 46 174 101 252 154 252 153 252 160 0 6 -209 119 -520 282 -52 27 -123 65
-158 84 -34 19 -67 31 -74 27 -6 -4 -8 -3 -5 3 4 6 -11 30 -32 54 -116 126
-133 301 -48 490 14 31 33 62 43 68 29 16 86 13 115 -7z m2542 -1725 c18 -8
38 -22 46 -31 11 -13 16 -14 24 -4 6 10 7 9 3 -4 -2 -9 -1 -30 4 -46 4 -17 4
-64 0 -105 -19 -162 -100 -243 -301 -299 -41 -11 -105 -29 -144 -40 -38 -11
-94 -26 -123 -33 -84 -21 -472 -148 -472 -154 0 -3 17 -15 38 -27 110 -62 352
-213 367 -230 13 -14 214 -154 222 -154 3 0 43 -28 89 -62 97 -73 124 -116
124 -197 0 -80 -34 -131 -88 -131 -11 0 -54 22 -96 50 -42 27 -107 67 -144 87
-37 20 -96 54 -132 76 -141 86 -516 267 -680 328 -41 15 -103 39 -137 53 l-63
24 -107 -45 c-60 -24 -115 -47 -123 -50 -98 -34 -355 -155 -555 -260 -150 -79
-212 -115 -336 -195 -118 -76 -151 -83 -188 -44 -27 29 -44 98 -35 140 19 90
35 104 384 343 229 157 259 177 325 213 102 57 138 83 123 91 -7 4 -76 26
-153 48 -77 23 -156 48 -175 55 -55 22 -182 61 -352 110 -86 24 -172 52 -191
61 -86 40 -146 140 -155 254 -5 81 13 132 60 161 28 18 43 20 103 15 242 -21
497 -86 845 -215 106 -39 339 -136 472 -197 57 -26 57 -26 98 -8 22 10 40 21
40 25 0 4 6 7 13 7 6 0 75 27 152 60 172 75 286 119 432 169 63 21 109 42 106
47 -3 6 -1 7 5 3 6 -3 78 10 159 30 132 32 419 90 466 93 10 0 32 -5 50 -12z
m-328 -1566 c85 -39 119 -117 87 -200 -23 -61 -419 -402 -505 -434 -11 -4 -15
-12 -11 -18 4 -8 3 -9 -4 -5 -6 4 -55 -16 -109 -43 -124 -62 -344 -136 -446
-150 -231 -32 -491 0 -709 88 -210 83 -380 193 -552 355 -32 31 -63 53 -69 49
-6 -3 -7 -1 -3 6 4 7 -5 26 -23 46 -37 43 -45 70 -39 136 9 88 84 139 183 124
43 -6 57 -16 149 -107 156 -155 267 -233 429 -305 308 -136 680 -114 986 59
61 34 210 135 226 152 6 6 37 33 70 61 33 27 90 77 126 113 60 57 118 91 159
91 8 0 33 -8 55 -18z"/>
</g>
</svg>
